<svg xmlns="http://www.w3.org/2000/svg" preserveAspectRatio="none" viewBox="0 0 31.058 31.058"><g fill="#808080"><path fill-opacity=".11" d="m.977.941h29.1v29.21h-29.1z"/><path d="m6.03 13.08q0 .077-.027.137-.027.06-.073.1-.043.04-.107.06-.06.017-.123.017h-.374q-.117 0-.204-.023-.083-.023-.157-.083-.07-.063-.137-.167-.067-.107-.15-.274l-1.075-2.02q-.093-.18-.19-.387-.097-.21-.174-.407h-.007q.013.24.02.481.007.237.007.491v2.259q0 .033-.02.06-.017.027-.063.047-.043.017-.12.027-.077.001-.197.001-.117 0-.194-.001-.077-.001-.12-.027-.043-.02-.06-.047-.017-.027-.017-.06v-3.881q0-.157.09-.234.093-.08.227-.08h.471q.127 0 .214.023.087.02.154.07.07.05.13.14.06.087.123.217l.841 1.578q.073.143.143.284.073.137.14.277.067.137.13.27.063.133.123.267h.003q-.001-.234-.017-.487-.003-.254-.003-.484v-2.026q0-.033.02-.06.02-.027.067-.047.047-.02.123-.027.077-.001.197-.001.113 0 .19.001.077.007.117.027.043.02.06.047.017.027.017.06v3.881"/><path d="m9.931 11.756q0 .38-.1.694-.1.314-.304.541-.204.227-.511.35-.307.123-.717.123-.397 0-.691-.11-.294-.11-.487-.32-.194-.21-.287-.517-.093-.307-.093-.701 0-.38.1-.694.103-.317.307-.541.204-.227.507-.35.307-.123.717-.123.4 0 .694.11.294.107.484.317.194.21.287.517.093.307.093.704m-.864.033q0-.22-.037-.404-.033-.187-.117-.324-.083-.137-.224-.214-.137-.077-.347-.077-.187 0-.327.07-.14.067-.23.2-.09.13-.137.317-.043.184-.043.42 0 .22.037.407.037.184.117.32.083.137.224.214.14.073.347.073.19 0 .33-.067.14-.07.23-.2.09-.13.133-.314.043-.187.043-.424"/><path d="m12.981 13.275q0 .033-.02.06-.02.023-.07.04-.047.017-.127.023-.08.001-.204.001-.123 0-.204-.001-.08-.007-.13-.023-.047-.017-.067-.04-.02-.027-.02-.06v-2.97q0-.033.02-.057.02-.027.067-.043.05-.02.13-.03.08-.001.204-.001.123 0 .204.001.08.001.127.03.05.017.07.043.02.023.02.057v2.97m.063-3.984q0 .254-.103.35-.103.097-.384.097-.284 0-.384-.093-.097-.093-.097-.337 0-.254.1-.35.103-.1.387-.1.28 0 .38.097.1.093.1.337"/><path d="m18.557 13.275q0 .033-.02.06-.02.023-.067.04-.047.017-.127.023-.08.001-.204.001-.127 0-.207-.001-.08-.007-.13-.023-.047-.017-.067-.04-.017-.027-.017-.06v-1.765q0-.15-.03-.274-.027-.123-.087-.21-.057-.09-.147-.137-.087-.05-.21-.05-.15 0-.304.117-.154.117-.334.34v1.979q0 .033-.02.06-.02.023-.07.04-.047.017-.127.023-.08.001-.2.001-.123 0-.204-.001-.08-.007-.13-.023-.047-.017-.067-.04-.02-.027-.02-.06v-1.765q0-.15-.03-.274-.027-.123-.083-.21-.057-.09-.147-.137-.09-.05-.21-.05-.154 0-.307.117-.154.117-.33.34v1.979q0 .033-.02.06-.02.023-.07.04-.047.017-.127.023-.08.001-.204.001-.123 0-.204-.001-.08-.007-.13-.023-.047-.017-.067-.04-.02-.027-.02-.06v-2.977q0-.033.017-.057.017-.027.06-.043.043-.017.11-.023.07-.001.174-.001.107 0 .177.001.07.007.107.023.04.017.057.043.017.023.017.057v.344q.247-.267.491-.4.247-.133.514-.133.184 0 .33.04.147.037.26.11.117.07.2.17.083.1.14.224.133-.143.26-.247.13-.103.254-.167.127-.067.25-.097.127-.033.257-.033.297 0 .501.1.204.1.327.274.127.17.18.4.053.23.053.487v1.905"/><path d="m21.924 13.285q0 .047-.033.073-.033.027-.107.037-.07.013-.21.013-.15 0-.22-.013-.067-.001-.097-.037-.027-.027-.027-.073v-.237q-.184.197-.42.307-.234.11-.521.11-.237 0-.437-.063-.197-.06-.344-.18-.143-.123-.224-.304-.08-.18-.08-.42 0-.26.1-.45.103-.194.304-.317.204-.127.504-.187.3-.06.697-.06h.29v-.18q0-.14-.03-.244-.027-.107-.093-.177-.063-.07-.174-.103-.107-.033-.267-.033-.21 0-.377.047-.164.047-.29.103-.127.057-.214.103-.083.047-.137.047-.037 0-.067-.023-.027-.023-.047-.067-.017-.043-.027-.107-.001-.063-.001-.14 0-.103.017-.164.017-.06.063-.107.047-.05.164-.107.117-.06.274-.11.157-.05.34-.08.187-.033.384-.033.35 0 .597.07.25.067.41.21.16.14.234.364.073.224.073.531v2m-.824-1.275h-.32q-.204 0-.347.03-.143.03-.234.09-.09.06-.133.147-.04.083-.04.194 0 .187.117.294.12.107.33.107.177 0 .324-.09.15-.09.304-.264v-.507"/><path d="m25.448 10.505q0 .16-.037.237-.037.077-.09.077h-.35q.073.08.103.184.033.1.033.21 0 .26-.087.464-.087.2-.25.34-.16.137-.39.21-.227.07-.507.07-.143 0-.274-.033-.13-.037-.2-.083-.04.043-.073.103-.03.06-.03.133 0 .097.083.16.087.06.24.067l.724.027q.254.001.451.073.2.06.334.174.137.11.207.267.073.157.073.357 0 .22-.097.414-.097.197-.29.34-.194.143-.487.227-.29.083-.681.083-.38 0-.651-.06-.267-.06-.44-.167-.17-.107-.25-.257-.077-.147-.077-.324 0-.11.027-.21.03-.1.083-.194.057-.09.137-.174.08-.083.184-.16-.143-.077-.224-.207-.077-.133-.077-.29 0-.197.09-.357.09-.164.234-.294-.117-.117-.187-.28-.07-.164-.07-.407 0-.26.09-.464.093-.207.257-.347.164-.143.39-.217.227-.077.501-.077.14 0 .267.017.13.017.24.047h.944q.057 0 .09.073.037.073.037.247m-1.078.704q0-.24-.133-.374-.133-.133-.377-.133-.123 0-.217.043-.093.04-.157.113-.06.07-.09.167-.03.093-.03.197 0 .227.133.36.133.13.37.13.127 0 .22-.04.093-.04.154-.11.063-.07.093-.16.033-.093.033-.194m.197 2.376q0-.15-.12-.23-.12-.08-.33-.087l-.597-.017q-.087.063-.14.123-.05.057-.083.11-.03.053-.04.103-.001.05-.001.103 0 .167.167.254.17.087.477.087.19 0 .32-.04.13-.037.21-.1.08-.063.113-.143.033-.077.033-.164"/><path d="m28.691 11.7q0 .154-.07.227-.067.073-.187.073h-1.812q0 .19.043.347.047.154.143.264.1.107.254.164.157.057.374.057.22 0 .387-.03.167-.033.287-.07.123-.04.204-.07.08-.033.13-.033.03 0 .05.013.02.001.033.04.013.03.017.087.007.053.007.137 0 .073-.003.127-.003.05-.001.087-.007.037-.02.063-.013.023-.037.047-.02.023-.117.063-.097.04-.247.08-.15.037-.344.063-.194.03-.414.03-.397 0-.697-.1-.297-.1-.497-.304-.2-.204-.3-.514-.097-.31-.097-.727 0-.397.103-.714.103-.32.3-.541.197-.224.477-.34.284-.117.637-.117.374 0 .637.11.267.11.437.307.17.194.25.461.08.267.08.581v.133m-.814-.24q.001-.354-.143-.554-.15-.204-.467-.204-.16 0-.28.06-.117.06-.197.164-.077.1-.12.24-.04.137-.047.294h1.255"/><path d="m5.773 21.827q0 .047-.033.073-.033.027-.107.037-.07.013-.21.013-.15 0-.22-.013-.067-.001-.097-.037-.027-.027-.027-.073v-.237q-.184.197-.42.307-.234.11-.521.11-.237 0-.437-.063-.197-.06-.344-.18-.143-.123-.224-.304-.08-.18-.08-.42 0-.26.1-.451.103-.194.304-.317.204-.127.504-.187.3-.06.697-.06h.29v-.18q0-.14-.03-.244-.027-.107-.093-.177-.063-.07-.174-.103-.107-.033-.267-.033-.21 0-.377.047-.164.047-.29.103-.127.057-.214.103-.083.047-.137.047-.037 0-.067-.023-.027-.023-.047-.067-.017-.043-.027-.107-.001-.063-.001-.14 0-.103.017-.164.017-.06.063-.107.047-.05.164-.107.117-.06.274-.11.157-.05.34-.08.187-.033.384-.033.35 0 .597.07.25.067.41.21.16.14.234.364.073.224.073.531v2m-.824-1.275h-.32q-.204 0-.347.03-.143.03-.234.09-.09.06-.133.147-.04.083-.04.194 0 .187.117.294.12.107.33.107.177 0 .324-.09.15-.09.304-.264v-.507"/><path d="m9.26 18.837q0 .017-.003.04 0 .023-.007.053-.003.027-.013.063-.007.037-.02.083l-.894 2.693q-.017.057-.047.093-.027.033-.093.053-.063.02-.177.027-.11.007-.29.007-.177 0-.29-.001-.11-.007-.174-.027-.063-.02-.093-.053-.027-.037-.043-.09l-.894-2.693q-.02-.067-.033-.12-.001-.053-.013-.077 0-.023 0-.043 0-.033.017-.057.02-.027.067-.043.047-.017.127-.023.083-.007.207-.007.137 0 .22.001.083.007.13.023.05.013.07.043.02.027.033.067l.677 2.186.02.083.02-.083.667-2.186q.001-.04.03-.067.023-.03.07-.043.047-.017.123-.023.08-.001.207-.001.123 0 .2.007.08.007.123.023.043.017.06.043.017.023.017.057"/><path d="m12.193 21.827q0 .047-.033.073-.033.027-.107.037-.07.013-.21.013-.15 0-.22-.013-.067-.001-.097-.037-.027-.027-.027-.073v-.237q-.184.197-.42.307-.234.11-.521.11-.237 0-.437-.063-.197-.06-.344-.18-.143-.123-.224-.304-.08-.18-.08-.42 0-.26.1-.451.103-.194.304-.317.204-.127.504-.187.3-.06.697-.06h.29v-.18q0-.14-.03-.244-.027-.107-.093-.177-.063-.07-.174-.103-.107-.033-.267-.033-.21 0-.377.047-.164.047-.29.103-.127.057-.214.103-.083.047-.137.047-.037 0-.067-.023-.027-.023-.047-.067-.017-.043-.027-.107-.001-.063-.001-.14 0-.103.017-.164.017-.06.063-.107.047-.05.164-.107.117-.06.274-.11.157-.05.34-.08.187-.033.384-.033.35 0 .597.07.25.067.41.21.16.14.234.364.073.224.073.531v2m-.824-1.275h-.32q-.204 0-.347.03-.143.03-.234.09-.09.06-.133.147-.04.083-.04.194 0 .187.117.294.12.107.33.107.177 0 .324-.09.15-.09.304-.264v-.507"/><path d="m13.875 21.817q0 .033-.02.06-.02.023-.07.04-.047.017-.127.023-.08.001-.204.001-.123 0-.204-.001-.08-.007-.13-.023-.047-.017-.067-.04-.02-.027-.02-.06v-2.97q0-.033.02-.057.02-.027.067-.043.05-.02.13-.03.08-.001.204-.001.123 0 .204.001.08.001.127.03.05.017.07.043.02.023.02.057v2.97m.063-3.984q0 .254-.103.35-.103.097-.384.097-.284 0-.384-.093-.097-.093-.097-.337 0-.254.1-.35.103-.1.387-.1.28 0 .38.097.1.093.1.337"/><path d="m15.557 21.817q0 .033-.02.06-.02.023-.07.04-.047.017-.127.023-.08.001-.204.001-.123 0-.204-.001-.08-.007-.13-.023-.047-.017-.067-.04-.02-.027-.02-.06v-4.388q0-.033.02-.06.02-.027.067-.043.05-.02.13-.03.08-.001.204-.001.123 0 .204.001.08.001.127.03.05.017.07.043.02.027.02.06v4.388"/><path d="m18.934 21.827q0 .047-.033.073-.033.027-.107.037-.07.013-.21.013-.15 0-.22-.013-.067-.001-.097-.037-.027-.027-.027-.073v-.237q-.184.197-.42.307-.234.11-.521.11-.237 0-.437-.063-.197-.06-.344-.18-.143-.123-.224-.304-.08-.18-.08-.42 0-.26.1-.451.103-.194.304-.317.204-.127.504-.187.3-.06.697-.06h.29v-.18q0-.14-.03-.244-.027-.107-.093-.177-.063-.07-.174-.103-.107-.033-.267-.033-.21 0-.377.047-.164.047-.29.103-.127.057-.214.103-.083.047-.137.047-.037 0-.067-.023-.027-.023-.047-.067-.017-.043-.027-.107-.001-.063-.001-.14 0-.103.017-.164.017-.06.063-.107.047-.05.164-.107.117-.06.274-.11.157-.05.34-.08.187-.033.384-.033.35 0 .597.07.25.067.41.21.16.14.234.364.073.224.073.531v2m-.824-1.275h-.32q-.204 0-.347.03-.143.03-.234.09-.09.06-.133.147-.04.083-.04.194 0 .187.117.294.12.107.33.107.177 0 .324-.09.15-.09.304-.264v-.507"/><path d="m22.772 20.289q0 .397-.087.714-.087.317-.25.541-.164.224-.404.344-.237.12-.541.12-.15 0-.28-.03-.13-.027-.25-.09-.117-.063-.234-.16-.113-.097-.234-.234v.324q0 .037-.02.063-.017.023-.06.04-.04.017-.11.023-.07.007-.17.007-.103 0-.174-.007-.067-.007-.11-.023-.04-.017-.057-.04-.017-.027-.017-.063v-4.388q0-.033.02-.06.02-.027.067-.043.05-.02.13-.03.08-.001.204-.001.123 0 .204.001.08.001.127.03.05.017.07.043.02.027.02.06v1.645q.113-.113.227-.194.113-.08.227-.13.113-.053.234-.077.12-.023.254-.023.33 0 .561.133.23.13.374.354.147.224.214.524.067.297.067.627m-.871.06q0-.19-.03-.367-.027-.177-.097-.314-.07-.137-.184-.217-.11-.083-.28-.083-.083 0-.164.023-.08.023-.167.08-.083.057-.174.147-.09.09-.19.224v.988q.177.227.337.347.164.117.34.117.164 0 .277-.083.113-.083.187-.217.077-.133.11-.304.033-.17.033-.34"/><path d="m24.287 21.817q0 .033-.02.06-.02.023-.07.04-.047.017-.127.023-.08.001-.204.001-.123 0-.204-.001-.08-.007-.13-.023-.047-.017-.067-.04-.02-.027-.02-.06v-4.388q0-.033.02-.06.02-.027.067-.043.05-.02.13-.03.08-.001.204-.001.123 0 .204.001.08.001.127.03.05.017.07.043.02.027.02.06v4.388"/><path d="m27.877 20.242q0 .154-.07.227-.067.073-.187.073h-1.812q0 .19.043.347.047.154.143.264.1.107.254.164.157.057.374.057.22 0 .387-.03.167-.033.287-.07.123-.04.204-.07.08-.033.13-.033.03 0 .05.013.02.001.033.04.013.03.017.087.007.053.007.137 0 .073-.003.127-.003.05-.001.087-.007.037-.02.063-.013.023-.037.047-.02.023-.117.063-.097.04-.247.08-.15.037-.344.063-.194.03-.414.03-.397 0-.697-.1-.297-.1-.497-.304-.2-.204-.3-.514-.097-.31-.097-.727 0-.397.103-.714.103-.32.3-.541.197-.224.477-.34.284-.117.637-.117.374 0 .637.11.267.11.437.307.17.194.25.461.08.267.08.581v.133m-.814-.24q.001-.354-.143-.554-.15-.204-.467-.204-.16 0-.28.06-.117.06-.197.164-.077.1-.12.24-.04.137-.047.294h1.255"/></g></svg>