<svg xmlns="http://www.w3.org/2000/svg" width="491" height="93" fill="none"><path fill="#fff" d="M154.069 20.528h-22.556l7.656 51.318h19.453l14.486-25.66 2.794 25.66h19.66l27.42-51.318h-23.799l-10.14 27.208-3.311-27.208h-16.659l-13.452 28.37-1.552-28.37Z"/><path fill="#fff" d="m112.577 20.528-.931 4.744c-5.212-3.718-11.555-5.787-18.108-5.906-10.554 0-26.592 8.036-26.488 30.984 0 12.394 5.277 22.367 21.418 21.593 0 0 8.692.097 14.797-5.229l-1.035 5.035h20.694l10.347-51.221h-20.694ZM96.746 56.257c-5.07.29-8.692-3.776-9.106-8.23-.517-6.197 4.864-13.266 11.796-13.75a12.124 12.124 0 0 1 5.314.64 11.433 11.433 0 0 1 4.413 2.846l-2.898 14.524c-2.622 2.264-5.967 3.659-9.519 3.97ZM256.3 20.528l-.932 4.744c-5.212-3.718-11.554-5.787-18.107-5.906-10.554 0-26.592 8.036-26.489 30.984 0 12.394 5.277 22.367 21.419 21.593 0 0 8.691.097 14.796-5.229l-1.035 5.035h20.695l10.347-51.221H256.3Zm-15.832 35.729c-5.07.29-8.691-3.776-9.105-8.23-.517-6.197 4.863-13.266 11.796-13.75 1.8-.185 3.622.035 5.314.64a11.43 11.43 0 0 1 4.412 2.846l-2.897 14.524c-2.634 2.248-5.973 3.64-9.52 3.97Z"/><path fill="#fff" d="m0 92.722 13.665-72.266h21.717l-.954 4.758c4.238-2.577 10.594-5.849 18.433-5.849 9.004 0 17.797 5.056 17.797 20.124 0 20.42-11.123 34.1-27.225 34.1-8.475 0-13.454-3.37-17.056-5.848l-4.66 24.98H0Zm42.903-57.297c-4.131 0-8.05 2.577-11.335 5.253l-2.33 12.392c2.33 2.478 5.402 4.361 8.686 4.361 6.78 0 10.594-7.236 10.594-15.662 0-3.965-1.907-6.344-5.615-6.344ZM339.762 20.5H319.75l-9.69 51.35h-22.434l9.69-51.35h-20.012l3.371-17.642h62.457l-3.37 17.643Zm93.013 5.914-9.374 13.996c-3.897-1.774-9.268-4.238-13.165-4.238-7.689 0-11.375 8.082-11.375 13.207 0 3.647 1.895 6.406 6.74 6.406 3.476 0 9.48-2.07 14.114-3.942l6.741 15.375c-6.004 2.169-16.536 5.717-25.91 5.717-13.377 0-23.909-6.407-23.909-21.782 0-22.373 14.43-32.13 28.648-32.13 12.113 0 20.749 4.336 27.49 7.391Z"/><path fill="#fff" d="m460.544 0-4.74 25.034c5.582-3.35 11.796-6.012 18.959-6.012 12.954 0 18.01 7.49 15.693 19.417l-6.32 33.412H462.44l6.003-31.244c.737-3.647.316-6.11-3.476-6.11-3.581 0-8.215 1.97-11.901 4.829l-6.109 32.525h-21.592L438.952 0h21.592Zm-82.765 36.02c0 14.524-22.35 16.557-35.698 16.46.125.698.333 1.38.621 2.034 1.449 2.614 5.07 3.485 7.967 3.582 3.852.075 7.682-.55 11.279-1.84a22.321 22.321 0 0 0 5.173-2.808l6.312 9.78c.207.29-4.346 3.098-4.553 3.292a39.347 39.347 0 0 1-11.795 4.55c-8.071 1.744-17.694 2.131-25.454-1.064a18.936 18.936 0 0 1-6.755-4.723 17.42 17.42 0 0 1-3.903-6.993 32.482 32.482 0 0 1-1.242-9.392c0-14.525 10.968-28.564 34.249-28.564 14.28.096 23.799 5.131 23.799 15.686Zm-25.04-3.873c-6.829 0-11.279 4.938-11.693 11.812 7.347-.29 17.073-2.808 17.073-7.746-.103-2.517-2.069-4.066-5.38-4.066Z"/></svg>