<svg fill="#000000" width="800px" height="800px" viewBox="0 0 24 24" id="dollar" data-name="Flat Color" xmlns="http://www.w3.org/2000/svg" class="icon flat-color"><path id="primary" d="M13.5,11h-3a2.5,2.5,0,0,1,0-5H11V7a1,1,0,0,0,2,0V6h.5A2.5,2.5,0,0,1,16,8.5a1,1,0,0,0,2,0A4.51,4.51,0,0,0,13.5,4H13V3a1,1,0,0,0-2,0V4h-.5a4.5,4.5,0,0,0,0,9h3a2.5,2.5,0,0,1,0,5H13V17a1,1,0,0,0-2,0v1h-.5A2.5,2.5,0,0,1,8,15.5a1,1,0,0,0-2,0A4.51,4.51,0,0,0,10.5,20H11v1a1,1,0,0,0,2,0V20h.5a4.5,4.5,0,0,0,0-9Z" style="fill: rgb(0, 0, 0);"></path></svg>