<?xml version="1.0" encoding="UTF-8"?>
<svg xmlns="http://www.w3.org/2000/svg" viewBox="0 0 1254 1254" width="1254" height="1254">
  <path fill="#ffffff" fill-rule="evenodd" d="M 820.04 1047.28 C 824.02 1045.15 829.89 1037.88 831.29 1033.37 C 831.98 1031.12 832.90 1025.73 833.32 1021.38 C 838.20 970.91 847.43 942.37 867.71 914.99 C 871.03 910.50 873.62 906.41 873.45 905.90 C 873.28 905.40 873.89 904.99 874.79 904.99 C 875.69 904.99 879.78 901.50 883.88 897.23 C 892.19 888.57 893.53 884.82 892.35 873.40 C 891.07 860.98 880.74 850.34 867.16 847.46 C 850.00 843.82 833.07 849.15 820.49 862.16 C 808.58 874.47 797.91 898.33 791.54 926.91 C 789.80 934.72 788.17 941.33 787.93 941.59 C 787.69 941.85 784.01 938.82 779.75 934.85 C 765.82 921.86 752.14 916.56 735.99 917.91 C 724.72 918.84 713.99 923.46 706.05 930.78 C 702.96 933.63 700.11 935.64 699.71 935.25 C 699.32 934.85 700.41 931.46 702.13 927.70 C 706.18 918.84 716.07 909.26 725.87 904.67 L 733.55 901.08 L 745.03 901.15 L 756.50 901.22 L 764.82 904.35 C 769.40 906.07 773.89 908.10 774.80 908.86 C 775.72 909.61 776.83 909.87 777.28 909.42 C 777.72 908.97 779.39 904.11 780.97 898.63 C 785.38 883.37 790.52 872.01 798.49 859.90 C 807.23 846.63 815.26 839.34 828.40 832.72 C 836.01 828.88 840.67 827.44 848.94 826.35 C 862.22 824.61 871.15 826.04 882.57 831.75 C 893.43 837.18 901.84 845.84 907.31 857.23 L 911.72 866.41 L 911.72 878.04 C 911.72 887.02 911.19 890.75 909.39 894.37 C 908.11 896.95 901.21 904.94 894.06 912.12 C 886.91 919.31 878.98 928.36 876.43 932.23 C 871.00 940.48 863.99 955.02 864.97 956.00 C 865.34 956.37 864.58 957.83 863.28 959.23 C 861.01 961.67 860.19 963.77 861.52 963.77 C 861.86 963.77 868.61 960.10 876.52 955.63 C 894.87 945.24 913.52 932.78 928.11 921.17 L 939.60 912.03 L 952.60 912.61 C 962.96 913.07 967.95 913.98 977.10 917.08 C 991.27 921.88 1008.45 930.61 1025.75 941.81 C 1040.46 951.34 1045.93 953.46 1052.57 952.21 C 1060.32 950.76 1062.68 947.25 1071.13 924.58 C 1079.84 901.21 1093.05 877.24 1105.21 862.74 C 1112.03 854.60 1113.17 852.22 1113.17 846.12 L 1113.17 840.98 L 1108.94 836.99 C 1106.61 834.80 1102.10 832.12 1098.92 831.03 C 1080.73 824.83 1061.88 833.88 1049.48 854.78 C 1044.20 863.66 1042.43 868.09 1038.44 882.33 C 1036.94 887.72 1035.51 892.34 1035.29 892.60 C 1035.06 892.86 1031.49 889.94 1027.36 886.12 C 1023.23 882.29 1017.01 877.25 1013.54 874.91 C 1005.75 869.65 991.55 864.15 980.61 862.14 C 976.06 861.30 972.34 860.13 972.34 859.54 C 972.34 858.94 976.40 858.45 981.37 858.45 L 990.40 858.45 L 999.68 844.58 C 1012.72 825.07 1024.10 803.80 1029.92 788.04 C 1032.65 780.63 1035.44 773.26 1036.11 771.66 L 1037.33 768.75 L 1039.43 770.60 C 1043.19 773.90 1051.30 777.40 1058.79 778.95 L 1066.12 780.46 L 1069.63 778.74 C 1071.57 777.79 1074.22 775.57 1075.53 773.80 C 1078.70 769.51 1078.56 759.33 1075.22 750.39 C 1072.05 741.91 1062.85 728.85 1053.90 720.11 C 1050.13 716.43 1047.04 712.99 1047.04 712.46 C 1047.04 711.93 1050.59 711.50 1054.92 711.50 C 1072.77 711.50 1094.00 703.89 1102.55 694.43 C 1108.10 688.28 1110.25 680.89 1108.34 674.52 C 1106.56 668.58 1099.40 661.63 1093.38 660.01 C 1090.80 659.32 1088.68 658.53 1088.68 658.27 C 1088.68 658.01 1093.24 653.20 1098.82 647.60 C 1111.02 635.35 1121.42 620.84 1127.85 607.12 C 1133.08 595.94 1137.66 580.83 1137.66 574.73 C 1137.66 567.71 1135.05 558.37 1132.14 554.99 L 1129.30 551.69 L 1123.26 551.77 C 1119.54 551.82 1115.21 552.91 1111.98 554.58 C 1109.11 556.08 1106.47 557.03 1106.12 556.68 C 1105.78 556.34 1107.47 551.46 1109.88 545.85 C 1119.38 523.73 1123.82 500.96 1122.59 480.66 C 1121.87 468.91 1119.90 461.96 1114.85 453.34 C 1111.10 446.95 1105.22 444.01 1097.85 444.84 C 1081.26 446.71 1066.04 464.14 1040.91 510.05 C 1032.01 526.31 1012.76 560.74 1009.13 566.90 C 1005.39 573.24 1004.96 577.15 1008.07 576.50 C 1008.90 576.32 1009.62 576.73 1009.67 577.40 C 1009.77 578.90 1013.48 584.74 1017.37 589.53 C 1024.29 598.06 1033.36 621.24 1036.46 638.38 C 1038.48 649.50 1036.97 650.48 1033.24 640.47 C 1026.70 622.96 1015.20 605.98 998.77 589.58 C 989.41 580.24 981.77 573.92 974.18 569.24 L 963.16 562.44 L 963.34 556.45 C 963.44 553.16 963.93 542.96 964.42 533.80 C 965.39 515.89 964.26 504.06 959.95 486.93 C 957.07 475.54 949.29 455.55 947.72 455.55 C 947.12 455.55 946.76 456.17 946.93 456.92 C 947.10 457.68 946.36 458.44 945.28 458.62 C 944.21 458.81 941.18 460.31 938.55 461.96 C 931.90 466.13 918.40 471.36 912.00 472.24 L 906.64 472.97 L 906.60 487.84 L 906.56 502.70 L 903.34 512.58 C 899.70 523.75 892.95 533.98 885.62 539.44 L 880.69 543.11 L 882.54 545.17 C 883.57 546.31 885.26 546.90 886.32 546.50 C 887.56 546.02 887.94 546.25 887.39 547.15 C 886.25 548.98 894.77 554.33 900.54 555.41 C 902.99 555.87 904.99 556.65 904.99 557.15 C 904.99 558.93 897.95 567.69 892.78 572.34 C 878.68 585.03 856.51 587.59 835.80 578.90 C 828.27 575.74 816.81 568.16 809.58 561.55 C 796.49 549.57 783.62 528.14 777.91 508.83 C 766.95 471.76 774.58 436.08 798.75 411.31 C 817.11 392.50 844.26 383.60 867.94 388.63 C 876.61 390.47 893.96 398.46 893.96 400.60 C 893.96 401.19 891.83 401.67 889.22 401.67 C 878.54 401.67 866.32 408.77 859.32 419.04 C 850.96 431.31 848.42 447.42 851.15 470.86 C 851.78 476.25 852.65 484.27 853.08 488.68 L 853.87 496.71 L 850.03 499.94 C 847.57 502.01 844.11 503.42 840.38 503.88 C 823.00 506.01 812.88 510.14 804.73 518.46 L 799.38 523.91 L 804.68 533.22 C 809.69 542.04 820.57 554.75 823.10 554.75 C 823.74 554.75 827.14 552.61 830.64 549.99 C 838.83 543.89 842.02 542.36 855.20 538.20 C 869.41 533.73 876.20 528.43 881.49 517.68 C 886.21 508.08 888.19 494.97 887.62 477.01 L 887.23 464.79 L 894.19 463.90 C 898.02 463.41 904.58 462.12 908.77 461.04 C 952.21 449.78 980.56 404.27 974.83 354.99 C 968.17 297.65 926.37 249.07 871.80 235.24 C 838.52 226.80 808.36 233.55 787.94 253.99 C 774.74 267.21 767.13 284.34 764.78 306.16 L 764.05 312.90 L 755.23 313.21 C 732.21 314.01 713.40 326.37 703.60 347.14 C 697.84 359.34 697.45 363.75 701.26 374.12 C 707.97 392.40 713.79 418.07 710.40 414.47 C 709.80 413.83 707.93 409.84 706.24 405.61 C 700.43 391.02 691.93 378.57 678.43 364.90 C 658.91 345.10 641.33 336.08 616.20 332.94 L 603.76 331.39 L 589.36 332.97 C 581.45 333.84 570.56 335.94 565.16 337.64 C 552.18 341.73 535.15 350.07 535.15 352.33 C 535.15 353.31 534.47 353.88 533.62 353.59 C 529.44 352.14 505.04 374.13 494.54 388.81 C 489.46 395.91 485.72 402.90 486.98 402.90 C 487.47 402.90 487.00 403.59 485.95 404.43 C 482.13 407.49 475.74 423.02 471.40 439.80 C 467.75 453.88 467.40 481.95 470.69 497.67 C 476.86 527.24 490.84 552.49 512.13 572.51 L 522.03 581.82 L 535.63 588.42 C 557.41 598.98 577.20 601.95 600.67 598.17 C 617.12 595.53 629.02 591.41 644.58 582.96 C 668.67 569.88 687.54 551.07 701.47 526.24 C 703.65 522.35 706.56 516.15 707.94 512.46 C 710.41 505.86 713.32 503.15 712.18 508.52 C 711.86 510.03 710.76 515.55 709.73 520.78 C 705.34 543.23 697.02 561.53 682.61 580.46 C 663.56 605.50 631.14 625.13 600.53 630.15 C 586.34 632.48 566.68 631.93 555.44 628.88 C 535.56 623.49 523.49 616.48 507.87 601.22 C 501.28 594.79 495.54 589.83 495.12 590.20 C 494.70 590.57 494.74 590.19 495.22 589.36 C 496.35 587.39 490.38 577.20 488.10 577.20 C 484.59 577.20 476.56 597.75 466.57 632.33 C 463.29 643.68 460.27 653.31 459.86 653.71 C 458.77 654.80 430.02 650.50 415.14 647.02 C 399.28 643.31 378.06 636.79 361.87 630.63 C 343.46 623.64 320.18 612.19 283.61 592.16 C 231.66 563.70 216.66 556.63 201.94 553.67 C 192.94 551.85 186.58 553.47 181.67 558.82 C 169.15 572.45 176.22 603.01 198.85 633.12 C 203.15 638.85 209.77 646.46 213.55 650.03 C 217.33 653.60 220.43 656.71 220.43 656.92 C 220.43 657.14 213.95 657.58 206.04 657.90 C 195.10 658.34 189.94 659.14 184.51 661.24 C 171.25 666.35 165.32 674.12 165.32 686.38 C 165.32 695.12 171.73 707.81 180.81 717.03 C 191.15 727.53 214.99 742.13 231.73 748.21 L 235.74 749.66 L 233.45 751.09 C 225.27 756.20 223.18 758.09 219.93 763.35 C 208.51 781.83 225.80 802.99 261.08 813.69 C 283.21 820.40 304.07 822.29 330.03 819.93 C 345.85 818.49 367.00 814.58 374.12 811.78 C 376.12 811.00 376.05 812.86 373.89 817.39 L 371.86 821.65 L 373.28 824.77 C 375.13 828.82 378.88 830.15 390.45 830.84 C 414.54 832.29 456.91 821.09 489.84 804.59 C 502.70 798.15 518.11 789.22 524.42 784.56 C 530.26 780.25 529.51 783.30 522.39 792.75 C 501.51 820.50 466.48 840.76 429.23 846.64 L 419.43 848.19 L 419.64 859.75 C 419.77 866.62 421.14 877.47 423.02 886.51 C 424.76 894.87 425.91 901.97 425.59 902.30 C 424.75 903.13 412.32 898.46 396.36 891.30 C 386.02 886.66 380.75 885.02 374.73 884.54 L 366.77 883.91 L 363.71 887.20 L 360.65 890.49 L 360.67 898.66 C 360.68 904.65 361.43 908.32 363.48 912.47 C 368.26 922.15 378.73 933.63 388.64 940.05 C 393.70 943.33 397.87 946.31 397.92 946.67 C 397.96 947.04 391.25 952.93 383.00 959.76 C 364.80 974.84 358.66 981.07 355.02 988.14 C 352.14 993.74 350.61 1004.30 351.93 1009.54 C 353.02 1013.89 358.40 1019.84 363.68 1022.54 C 383.83 1032.82 417.11 1024.66 452.33 1000.82 C 459.83 995.74 468.22 989.74 470.99 987.47 C 473.75 985.21 476.53 983.36 477.16 983.36 C 477.80 983.36 483.80 985.62 490.51 988.39 C 508.31 995.73 517.87 998.90 536.38 1003.58 C 569.62 1011.99 598.95 1015.21 636.18 1014.53 C 667.22 1013.97 697.50 1010.39 724.93 1004.04 C 739.29 1000.71 739.01 1000.84 737.21 998.67 C 736.39 997.67 735.29 997.12 734.77 997.44 C 733.62 998.16 730.84 995.04 731.78 994.10 C 733.20 992.68 713.37 978.82 705.81 975.95 C 704.22 975.34 702.93 974.28 702.93 973.58 C 702.93 971.93 710.85 973.03 721.86 976.22 C 746.51 983.36 764.22 998.57 785.59 1030.92 C 794.31 1044.13 798.37 1047.78 806.21 1049.44 C 810.40 1050.33 815.97 1049.46 820.04 1047.28 Z M 528.73 465.88 C 522.95 462.09 517.99 454.67 517.17 448.58 C 515.83 438.59 521.19 428.32 530.10 423.81 C 540.85 418.37 549.79 419.66 557.97 427.84 C 567.10 436.97 568.01 449.44 560.28 459.57 C 554.98 466.50 549.61 469.05 540.48 468.95 C 535.02 468.90 532.23 468.17 528.73 465.88 Z M 898.25 289.07 C 888.84 286.83 881.67 280.35 879.10 271.76 L 877.63 266.88 L 880.10 263.55 C 885.38 256.46 900.03 259.29 908.64 269.07 C 912.51 273.47 913.56 275.63 913.56 279.25 C 913.56 287.33 907.44 291.25 898.25 289.07 Z"/>
</svg>
