<?xml version="1.0" encoding="UTF-8"?>
<svg xmlns="http://www.w3.org/2000/svg" viewBox="880 390 1070 2070" aria-hidden="true">
  <path fill="#000000" fill-rule="evenodd" d="M 1577.121094 917.359375 C 1555.199219 887.011719 1543.789062 853.199219 1538.648438 828.109375 C 1529.640625 784.179688 1523.75 730.058594 1527.988281 674.140625 C 1535.371094 576.738281 1574.941406 497.199219 1607.71875 459.199219 C 1641.289062 420.269531 1680.308594 409.289062 1713.660156 413.859375 C 1747.019531 418.429688 1781.648438 439.5 1803.519531 486.011719 C 1824.871094 531.421875 1835.769531 617.699219 1822.519531 714.46875 C 1815.5 765.71875 1802.75 812.308594 1787.441406 850.441406 C 1773.839844 884.328125 1738.328125 939.910156 1738.328125 973.96875 C 1738.328125 1036.429688 1753.371094 1131.800781 1787.441406 1225.191406 C 1812.140625 1292.890625 1864.660156 1441.769531 1869.421875 1541.140625 C 1873.328125 1622.609375 1873.589844 1699.191406 1869.230469 1784.929688 C 1882.441406 1721.371094 1892.28125 1662.539062 1900.019531 1602.589844 C 1914.808594 1675.289062 1924.710938 1749.359375 1926.058594 1821.429688 C 1930.410156 2054.605469 1849.898438 2267.46875 1588.410156 2372.980469 C 1418.058594 2441.722656 1279.980469 2430.566406 1174.519531 2384.183594 C 1009.851562 2311.757812 922.417969 2148.664062 910.84375 2031.597656 C 900.703125 1929.015625 925.121094 1838.851562 933.851562 1758.101562 C 952.671875 1584.070312 979.851562 1479.980469 972.546875 1254.640625 C 1081.859375 1479.960938 1046.5 1686.570312 1201.480469 1853.320312 C 1111.769531 1826.730469 1101.53125 1806.488281 1070.058594 1796.078125 C 1069.410156 1795.871094 1044.929688 1864.636719 1070.960938 2015.644531 C 1076.320312 2046.746094 1088.738281 2083.109375 1109.238281 2118.148438 C 1050.570312 2070.550781 1021.53125 2024.933594 1024.789062 2032.066406 C 1046.378906 2079.234375 1126.191406 2189.066406 1239.300781 2236.894531 C 1313.421875 2268.234375 1409.21875 2271.78125 1528.199219 2223.769531 C 1715.960938 2148.003906 1768.308594 1991.863281 1765.179688 1824.441406 C 1761.609375 1633.199219 1698.261719 1429.96875 1644.691406 1283.140625 C 1605.929688 1176.878906 1586.578125 1039.25 1575.371094 964.128906 C 1605.140625 989.539062 1630.140625 1016.550781 1649.050781 1043.101562 C 1634.210938 1002.898438 1608.238281 960.421875 1577.121094 917.359375 Z M 1696.261719 506.140625 C 1665.601562 502.589844 1631.980469 575.121094 1621.21875 668.011719 C 1610.460938 760.898438 1626.621094 839.199219 1657.28125 842.75 C 1687.941406 846.300781 1721.570312 773.769531 1732.328125 680.878906 C 1743.078125 587.988281 1726.921875 509.691406 1696.261719 506.140625"/>
</svg>
