<svg width="500" height="300" viewBox="0 0 500 300" fill="none" xmlns="http://www.w3.org/2000/svg">
<path fill-rule="evenodd" clip-rule="evenodd" d="M380.158 17.0988C378.459 21.5677 378.457 21.5544 384.463 42.5515C390.528 63.7505 392.877 69.245 405.307 91.3198L413.811 106.421L420.86 105.998C424.736 105.765 428.062 105.432 428.248 105.255C428.435 105.079 425.185 94.125 421.027 80.9118L413.466 56.8883L399.257 35.4442C391.098 23.131 384.258 14 383.192 14C382.172 14 380.806 15.3942 380.158 17.0988ZM382.604 22.8072C382.604 24.5976 386.243 30.7458 391.781 38.311C396.828 45.2058 402.643 53.1601 404.702 55.9871C410.315 63.69 411.617 60.4112 406.347 51.8492C398.949 39.8321 385.459 20.7909 383.997 20.304C383.197 20.037 382.604 21.1038 382.604 22.8072ZM385.624 97.5464C370.551 101.114 364.282 102.743 344.548 108.219C332.588 111.538 320.746 114.258 318.233 114.264C315.719 114.269 309.266 112.578 303.891 110.506C296.122 107.51 293.03 106.886 288.81 107.465C273.073 109.622 238.481 130.319 234.662 139.862C232.613 144.986 232.315 147.668 233.703 148.507C234.202 148.808 242.542 149.717 252.238 150.526L269.867 151.998L274.728 148.928C284.741 142.607 327.023 122.176 342.941 115.968C369.49 105.612 388.46 101.83 392.065 106.176C392.78 107.037 395.787 113.523 398.747 120.588C401.707 127.653 406.547 138.091 409.503 143.784C413.586 151.65 414.524 154.427 413.409 155.353C412.382 156.204 411.014 155.842 408.861 154.148C407.168 152.816 405.116 151.726 404.303 151.726C403.49 151.726 398.139 154.378 392.413 157.618C370.612 169.954 343.48 183.137 339.891 183.137C337.383 183.137 322.198 176.886 322.198 175.854C322.198 175.287 322.742 174.487 323.406 174.076C325.606 172.716 324.669 168.611 321.896 167.464C319.483 166.466 287.313 161.834 194.741 149.154C160.325 144.44 146.216 144.051 138.563 147.609C135.573 148.998 131.364 151.626 129.209 153.447L125.292 156.759L133.97 166.324C138.743 171.584 143.618 175.888 144.802 175.888C145.986 175.888 149.417 174.692 152.425 173.23C156.746 171.132 158.206 170.885 159.377 172.056C162.017 174.696 158.914 177.195 141.75 186.262C132.609 191.091 124.376 195.668 123.455 196.432C121.663 197.92 118.399 210.491 119.515 211.608C119.882 211.975 128.39 208.167 138.42 203.144C148.45 198.12 157.393 194.01 158.296 194.01C159.197 194.01 160.963 195.147 162.221 196.535C164.772 199.355 164.602 199.586 156.776 203.92C154.407 205.234 153.061 206.926 153.061 208.592C153.061 211.971 153.211 211.922 175.695 201.167C193.271 192.762 199.853 191.107 192.573 196.925C188.285 200.352 127.905 230.599 119.804 233.379L113.729 235.463L105.91 231.973C101.609 230.053 91.8393 223.789 84.198 218.053C66.0218 204.408 62.7067 202.477 57.4574 202.472C52.0668 202.466 34.0343 211.213 32.14 214.751C29.6005 219.495 32.7851 219.631 41.2541 215.138C45.7555 212.749 49.7145 211.074 50.0528 211.412C51.7986 213.156 48.2092 216.022 37.1815 221.686L25 227.944V232.723C25 235.352 25.476 237.503 26.0583 237.503C26.6394 237.503 30.2469 236.118 34.0742 234.425C37.9015 232.733 41.753 231.509 42.6337 231.707C43.5132 231.904 52.1525 239.596 61.832 248.801C77.0954 263.315 79.8258 265.435 82.4172 264.786C84.0614 264.372 85.4037 263.638 85.4 263.152C85.3964 262.666 78.5355 255.002 70.1523 246.121C58.6716 233.958 55.319 229.714 56.567 228.924C60.0029 226.748 64.5443 228.008 72.5034 233.348C83.4912 240.719 90.4862 243.594 99.9035 244.609L107.756 245.454L100.206 249.348C93.4993 252.807 92.6548 253.647 92.6548 256.849C92.6548 258.833 92.882 260.457 93.1586 260.457C93.4353 260.457 96.2901 259.316 99.5013 257.921C119.636 249.178 184.087 223.005 185.483 223.005C186.41 223.005 189.8 224.936 193.015 227.296L198.861 231.588L204.789 229.827C220.014 225.307 258.018 210.542 289.539 196.902C302.799 191.166 305.571 190.386 312.697 190.386C317.149 190.386 321.71 190.739 322.832 191.169C324.15 191.674 315.523 195.538 298.467 202.083C196.731 241.115 118.789 265.704 88.4264 268.343C79.9466 269.08 69.7005 271.968 69.7005 273.621C69.7005 274.105 71.2819 276.017 73.2149 277.868C76.077 280.612 77.4047 281.087 80.3791 280.433C83.4091 279.769 84.2801 280.107 85.5027 282.428C87.536 286.286 88.8517 286.924 92.5147 285.829C97.0476 284.472 165.216 263.144 192.325 254.6C204.95 250.621 229.414 242.946 246.69 237.544C333.856 210.287 385.541 189.765 413.079 171.475C429.932 160.281 430.272 156.424 417.115 125.492C412.019 113.509 406.655 102.586 405.195 101.218C400.014 96.3649 394.769 95.3815 385.624 97.5464ZM416.794 111.553C417.972 117.445 426.165 133.604 427.975 133.604C429.99 133.604 438.569 123.027 441.987 116.328C443.789 112.794 444.064 111.219 443.05 110.204C442.267 109.419 436.237 108.66 428.885 108.421L416.084 108.004L416.794 111.553ZM286.678 112.265L283.174 113.751L290.899 116.779C295.148 118.443 298.783 120.626 298.975 121.629C299.186 122.718 297.593 124.279 295.02 125.506C290.963 127.44 288.508 130.52 289.907 131.92C290.787 132.798 312.533 121.742 312.533 120.415C312.533 119.428 298.393 113.072 292.599 111.454C291.27 111.083 288.606 111.448 286.678 112.265ZM420.056 112.835C420.056 114.037 420.79 116.026 421.689 117.255C423.259 119.4 423.666 119.346 432.059 115.841C442.068 111.662 441.357 110.65 428.414 110.65C421.155 110.65 420.056 110.937 420.056 112.835ZM370.157 120.951C367.051 133.056 366.546 133.598 362.663 128.983C359.291 124.977 357.786 124.453 354.899 126.279C353.499 127.165 354.156 128.653 358.334 134.068L363.499 140.762L361.56 146.547C360.494 149.728 358.257 154.718 356.587 157.637C354.919 160.557 353.805 163.197 354.113 163.506C354.422 163.814 357.003 162.783 359.848 161.213C363.836 159.013 365.473 157.138 366.988 153.035L368.955 147.712L371.672 151.386C373.547 153.923 375.104 154.874 376.702 154.456C380.648 153.424 380.462 151.987 375.527 145.406L370.752 139.041L371.9 131.852C372.532 127.898 372.888 121.918 372.691 118.563L372.335 112.462L370.157 120.951ZM267.228 121.545C260.518 124.257 248.284 132.251 247.623 134.352C247.362 135.182 249.666 135.951 253.589 136.345C259.582 136.948 260.898 136.526 274.737 129.575C284.051 124.895 289.07 121.739 288.345 121.014C286.014 118.683 273.53 118.995 267.228 121.545ZM433.043 132.458C430.552 135.103 428.513 137.779 428.513 138.403C428.513 139.026 431.55 149.177 435.262 160.961L442.012 182.384L455.898 203.299C463.535 214.802 470.536 224.213 471.455 224.213C472.376 224.213 473.69 223.162 474.379 221.877C476.977 217.024 476.171 213.107 466.294 182.533C463.333 173.365 458.458 162.78 450.574 148.404C444.29 136.942 438.794 127.582 438.36 127.605C437.928 127.627 435.535 129.812 433.043 132.458ZM316.404 142.364C301.59 148.383 289.901 153.685 290.429 154.148C291.547 155.126 345.104 165.517 345.614 164.855C347.016 163.036 356.025 145.249 356.025 144.3C356.025 142.456 346.157 131.172 344.661 131.304C343.934 131.369 331.219 136.345 316.404 142.364ZM160.31 150.463C160.31 151.158 160.533 151.726 160.805 151.726C161.078 151.726 193.682 158.264 233.258 166.255C275.238 174.731 306.433 180.478 308.138 180.05C311.351 179.244 318.222 172.718 317.071 171.567C316.201 170.696 313.411 170.296 212.863 156.628C188.278 153.287 166.396 150.247 164.236 149.876C161.879 149.47 160.31 149.705 160.31 150.463ZM445.426 180.123C445.426 182.193 469.712 219.301 471.099 219.349C471.598 219.366 472.005 217.811 472.005 215.894C472.005 213.571 469.688 209.197 465.058 202.785C446.65 177.285 445.426 175.873 445.426 180.123Z" fill="url(#paint0_linear_754_23514)"/>
<path d="M267.604 80.8496C265.993 80.5264 265.579 79.3693 266.653 78.1921C267.422 77.3503 272.584 75.2024 313.256 58.8019C354.86 42.0259 359.128 40.3621 360.46 40.3978C362.214 40.4448 362.759 41.4656 361.783 42.8734C361.091 43.8712 359.819 44.4045 314.95 62.4971C270.081 80.5897 268.795 81.0882 267.604 80.8496Z" fill="#E2214E"/>
<path d="M342.057 254.54C340.447 254.217 340.032 253.06 341.106 251.883C341.875 251.041 347.037 248.893 387.71 232.493C429.313 215.718 433.581 214.054 434.914 214.09C436.667 214.137 437.213 215.158 436.237 216.566C435.545 217.563 434.272 218.097 389.403 236.188C344.534 254.28 343.248 254.779 342.057 254.54Z" fill="#E2214E"/>
<path d="M319.729 79.1582C318.152 78.9077 317.797 78.0779 318.703 76.759C319.385 75.7658 320.042 75.4784 340.179 67.3641C351.604 62.7605 361.231 59.0032 361.574 59.0147C363.815 59.09 364.239 61.1177 362.309 62.5259C361.574 63.0616 353.851 66.2748 341.069 71.3625C322.098 78.9142 320.914 79.3465 319.729 79.1582Z" fill="#E2214E"/>
<path d="M383.043 218.702C381.467 218.452 381.112 217.622 382.018 216.303C382.7 215.31 383.357 215.022 403.494 206.908C414.919 202.305 424.546 198.548 424.889 198.559C427.129 198.635 427.553 200.662 425.623 202.071C424.889 202.606 417.165 205.819 404.384 210.907C385.413 218.458 384.228 218.89 383.043 218.702Z" fill="#E2214E"/>
<defs>
<linearGradient id="paint0_linear_754_23514" x1="184.731" y1="43.2713" x2="332.497" y2="425.92" gradientUnits="userSpaceOnUse">
<stop stop-color="#E92956"/>
<stop offset="0.879507" stop-color="#D20F3C"/>
</linearGradient>
</defs>
</svg>
